<?xml version="1.0" encoding="UTF-8" standalone="no"?>
<svg
   version="1.1"
   id="svg824"
   width="48"
   height="48"
   viewBox="0 0 48 48"
   sodipodi:docname="LogoIcon_48x48px.svg"
   inkscape:version="1.1.2 (1:1.1+202202050950+0a00cf5339)"
   xmlns:inkscape="http://www.inkscape.org/namespaces/inkscape"
   xmlns:sodipodi="http://sodipodi.sourceforge.net/DTD/sodipodi-0.dtd"
   xmlns="http://www.w3.org/2000/svg"
   xmlns:svg="http://www.w3.org/2000/svg">
  <sodipodi:namedview
     id="namedview8"
     pagecolor="#ffffff"
     bordercolor="#666666"
     borderopacity="1.0"
     inkscape:pageshadow="2"
     inkscape:pageopacity="0.0"
     inkscape:pagecheckerboard="0"
     showgrid="false"
     width="48px"
     inkscape:zoom="11.554768"
     inkscape:cx="6.3177385"
     inkscape:cy="16.400157"
     inkscape:window-width="2488"
     inkscape:window-height="1369"
     inkscape:window-x="72"
     inkscape:window-y="34"
     inkscape:window-maximized="1"
     inkscape:current-layer="svg824" />
  <defs
     id="defs828">
    <marker
       style="overflow:visible"
       id="Arrow1Lstart"
       refX="0"
       refY="0"
       orient="auto">
      <path
         transform="matrix(0.8,0,0,0.8,10,0)"
         style="fill:context-stroke;fill-rule:evenodd;stroke:context-stroke;stroke-width:1pt"
         d="M 0,0 5,-5 -12.5,0 5,5 Z"
         id="path2176" />
    </marker>
  </defs>
  <g
     id="layer1"
     style="display:inline;opacity:1;stroke-width:0.458333"
     transform="matrix(2.1818179,0,0,2.1818179,-30.495807,-16.2052)">
    <path
       id="path134931"
       style="display:inline;opacity:1;fill:#de774c;fill-opacity:1;stroke:none;stroke-width:0.458338;stroke-linecap:round;stroke-linejoin:round;stroke-miterlimit:4;stroke-dasharray:none;stroke-dashoffset:0;stroke-opacity:1;paint-order:normal"
       d="m 19.694171,9.402343 c -0.140951,-9e-5 -0.271231,0.06873 -0.341709,0.180497 l -5.346603,8.314378 c -0.07043,0.111704 -0.07043,0.249311 0,0.361004 l 1.527206,2.829897 a 0.57209498,0.57209498 1.4193194 0 0 0.992845,0.0246 l 4.065022,-6.714006 c 0.0624,-0.103117 0.174181,-0.166094 0.294695,-0.166034 H 24.7722 c 0.09428,1.4e-4 0.152233,0.103199 0.103361,0.183814 l -6.157297,10.173201 a 1.6184485,1.6184485 89.473375 0 0 0.01564,1.70135 l 0.618559,0.98083 c 0.07048,0.11176 0.200758,0.180576 0.341709,0.180496 h 0.74983 a 1.7744514,1.7744514 150.59637 0 0 1.517919,-0.85543 l 7.385398,-12.198227 c 0.06234,-0.103025 0.173981,-0.165988 0.294396,-0.166034 h 3.886572 c 0.0944,-1.39e-4 0.152595,0.103084 0.103659,0.183814 l -7.371979,12.180366 a 0.56365757,0.56365757 60.591889 0 0 0.482215,0.855511 h 3.353191 c 0.14085,-1.4e-5 0.270983,-0.06882 0.341407,-0.180496 l 5.463437,-9.013482 c 0.07043,-0.11169 0.07043,-0.249305 0,-0.360994 L 30.961849,9.58284 C 30.891419,9.47116 30.761282,9.402357 30.620444,9.402343 Z" />
  </g>
</svg>
